<?xml version="1.0" encoding="utf-8"?>
<!-- Generator: Adobe Illustrator 23.0.1, SVG Export Plug-In . SVG Version: 6.00 Build 0)  -->
<svg version="1.1" id="Layer_1" xmlns="http://www.w3.org/2000/svg" xmlns:xlink="http://www.w3.org/1999/xlink" wide="200px" height="200px"
	 viewBox="0 0 200 200" style="enable-background:new 0 0 200 200;" xml:space="preserve">
<style type="text/css">
	.st0{fill:#A90C2B;}
</style>
<g>
	<g>
		<path class="st0" d="M190.65,57.72C174.72,23.63,140.12,0,100,0S25.28,23.63,9.35,57.72l11.33,5.28
			C34.62,33.17,64.9,12.5,100,12.5s65.38,20.67,79.32,50.5L190.65,57.72z M17.76,70.06L6.01,65.78C2.12,76.46,0,87.98,0,100
			c0,12.02,2.12,23.54,6.01,34.22l11.75-4.28c-3.4-9.34-5.26-19.43-5.26-29.94C12.5,89.48,14.36,79.4,17.76,70.06 M9.35,142.28
			C25.28,176.38,59.88,200,100,200s74.72-23.62,90.65-57.72L179.32,137c-13.94,29.83-44.22,50.5-79.32,50.5S34.62,166.83,20.68,137
			L9.35,142.28z M182.24,70.06c3.4,9.34,5.26,19.43,5.26,29.95c0,10.52-1.86,20.6-5.26,29.94l11.75,4.28
			c3.89-10.68,6.01-22.2,6.01-34.22c0-12.02-2.12-23.55-6.01-34.22L182.24,70.06z"/>
		<path class="st0" d="M82.48,80.02c-2.48,0-5.15,0.44-7.47,0.94V60.07L64.61,61.2v56.08c4.3,1.36,9.88,2.65,15.39,2.65
			c12.52,0,19.91-4.23,19.91-19.95C99.91,84.25,92.51,80.02,82.48,80.02 M80.82,111.01c-1.89,0-3.55-0.23-5.81-0.76V89.71
			c1.87-0.43,3.73-0.77,5.81-0.77c5.66,0,8.37,2.57,8.37,11.03C89.2,108.44,86.48,111.01,80.82,111.01"/>
		<path class="st0" d="M122.94,95.4c-4.45-0.08-7.24-0.15-7.24-2.57c0-3.17,1.89-3.85,7.62-3.85c3.47,0,8.37,0.68,11.46,1.43
			l-0.83-8.6c-3.99-1.21-8.44-1.74-11.38-1.74c-12.52,0-17.34,4.53-17.34,13.06c0,8.23,5.05,10.34,13.57,10.49
			c5.5,0.07,8.37-0.08,8.37,3.55c0,3.17-2.49,3.85-7.84,3.85c-5.96,0-10.18-0.91-13.27-1.89l0.83,8.6c4,1.43,7.77,2.19,13.27,2.19
			c13.35,0,17.49-4.53,17.49-12.68C137.64,96.98,130.93,95.55,122.94,95.4"/>
		<path class="st0" d="M40.48,80.07c-3.32,0-7.77,0.53-11.76,1.74l-0.83,8.6c3.32-0.75,8.22-1.43,11.46-1.43
			c5.43,0,7.61,0.45,7.61,4.83v1.21l-7.24,0.38c-7.99,0.45-14.7,1.81-14.7,11.85c0,8.15,4.15,12.68,16.66,12.68
			c5.81,0,11.38-1.28,15.68-2.64V93.13C57.36,84.61,52.62,80.07,40.48,80.07 M46.96,110.72c-1.36,0.23-3.17,0.53-5.05,0.53
			c-4.52,0-6.41-1.44-6.41-4.53c0-3.24,1.81-3.77,5.58-4l5.88-0.38V110.72z"/>
		<path class="st0" d="M158.09,80.07c-3.32,0-7.77,0.53-11.76,1.74l-0.83,8.6c3.32-0.75,8.22-1.43,11.46-1.43
			c5.43,0,7.61,0.45,7.61,4.83v1.21l-7.24,0.38c-7.99,0.45-14.7,1.59-14.7,11.85c0,8.15,4.15,12.68,16.66,12.68
			c5.81,0,11.38-1.28,15.68-2.64V93.13C174.98,84.61,170.23,80.07,158.09,80.07 M164.57,110.72c-1.36,0.23-3.17,0.53-5.05,0.53
			c-4.52,0-6.41-1.44-6.41-4.53c0-3.24,1.81-3.77,5.58-4l5.88-0.38V110.72z"/>
	</g>
</g>
</svg>
